Mental.2012.DVDRip.XViD-CM8

Source: Retail DVD

Video.: 720x304 @bitrate 1430
Audio.: English 6CH @448
Sample: Yes, included
 
http://www.imdb.com/title/tt1655416/

General
Complete name                            : Mental.2012.DVDRip.XViD-CM8.avi
Format                                   : AVI
Format/Info                              : Audio Video Interleave
File size                                : 1.46 GiB
Duration                                 : 1h 50mn
Overall bit rate                         : 1 881 Kbps
Writing application                      : VirtualDubMod 1.5.4.1 (build 2178/release)
Writing library                          : VirtualDubMod build 2178/release

Video
ID                                       : 0
Format                                   : MPEG-4 Visual
Format profile                           : Advanced Simple@L5
Format settings, BVOP                    : No
Format settings, QPel                    : No
Format settings, GMC                     : No warppoints
Format settings, Matrix                  : Custom
Codec ID                                 : XVID
Codec ID/Hint                            : XviD
Duration                                 : 1h 50mn
Bit rate                                 : 1 427 Kbps
Width                                    : 720 pixels
Height                                   : 304 pixels
Display aspect ratio                     : 2.35:1
Frame rate                               : 25.000 fps
Color space                              : YUV
Chroma subsampling                       : 4:2:0
Bit depth                                : 8 bits
Scan type                                : Progressive
Compression mode                         : Lossy
Bits/(Pixel*Frame)                       : 0.261
Stream size                              : 1.11 GiB (76%)
Writing library                          : XviD 1.2.1 (UTC 2008-12-04)

Audio
ID                                       : 1
Format                                   : AC-3
Format/Info                              : Audio Coding 3
Mode extension                           : CM (complete main)
Format settings, Endianness              : Big
Codec ID                                 : 2000
Duration                                 : 1h 50mn
Bit rate mode                            : Constant
Bit rate                                 : 448 Kbps
Channel(s)                               : 6 channels
Channel positions                        : Front: L C R, Side: L R, LFE
Sampling rate                            : 48.0 KHz
Bit depth                                : 16 bits
Compression mode                         : Lossy
Stream size                              : 356 MiB (24%)
Alignment                                : Split accross interleaves
Interleave, duration                     : 96 ms (2.40 video frames)
Interleave, preload duration             : 96 ms


PLOT
A charismatic, crazy hothead transforms a family's life when she becomes the nanny of five girls 
whose mother has cracked from her husband's political ambitions and his infidelity. 

 
http://img542.imageshack.us/img542/6939/vlcsnap00002o.png 
http://img855.imageshack.us/img855/1378/vlcsnap00003pq.png 
http://img803.imageshack.us/img803/3269/vlcsnap00005z.png 
http://img716.imageshack.us/img716/7630/vlcsnap00007cm.png